<svg viewBox="0 0 24 24" width="64" height="64" xmlns="http://www.w3.org/2000/svg"><path fill="white" d="M7.42 10.05c-.18-.16-.46-.23-.84-.23H6v4.36h.58c.37 0 .67-.08.87-.25.21-.18.31-.52.31-1.03v-1.8c0-.54-.1-.9-.34-1.05zm15.38-6.55v17c0 1.38-1.12 2.5-2.5 2.5h-17c-1.38 0-2.5-1.12-2.5-2.5v-17c0-1.38 1.12-2.5 2.5-2.5h17c1.38 0 2.5 1.12 2.5 2.5zM8.56 15.8c.44-.35.68-.86.68-1.53v-2.26c0-.67-.24-1.18-.68-1.53-.44-.35-1.07-.53-1.89-.53H4.38v7.58h2.29c.82 0 1.45-.18 1.89-.53v-.2zm5.16-3.64h-2.3v1.4h1.4v1.86h-1.4v1.56h2.3v1.86h-2.3c-.67 0-1.14-.22-1.42-.66-.28-.44-.42-1.06-.42-1.86v-2.96c0-.8.14-1.42.42-1.86.28-.44.75-.66 1.42-.66h2.3v1.86zm5.04 3.32c0 .8-.14 1.42-.42 1.86-.28.44-.76.66-1.42.66h-.58c-.66 0-1.14-.22-1.42-.66-.28-.44-.42-1.06-.42-1.86v-2.96c0-.8.14-1.42.42-1.86.28-.44.76-.66 1.42-.66h.58c.66 0 1.14.22 1.42.66.28.44.42 1.06.42 1.86v2.96zm-1.84-3.2c0-.55-.22-.82-.66-.82s-.66.27-.66.82v3.4c0 .55.22.82.66.82s.66-.27.66-.82v-3.4z"/></svg>
